<?xml version="1.0" encoding="utf-8"?>
<!-- Generator: Adobe Illustrator 16.0.0, SVG Export Plug-In . SVG Version: 6.00 Build 0)  -->
<!DOCTYPE svg PUBLIC "-//W3C//DTD SVG 1.1//EN" "http://www.w3.org/Graphics/SVG/1.1/DTD/svg11.dtd">
<svg version="1.1" xmlns="http://www.w3.org/2000/svg" xmlns:xlink="http://www.w3.org/1999/xlink" x="0px" y="0px" width="302px"
	 height="68px" viewBox="0 0 302 68" enable-background="new 0 0 302 68" xml:space="preserve">
<g id="background">
</g>
<g id="content">
	<g>
		<g>
			<g>
				<path fill="#FF2B06" d="M5.045,59.852l-2.886-4.16h2.75l1.545,2.293l1.528-2.293h2.666l-2.887,4.109l3.243,4.669h-2.75
					L6.42,61.702L4.586,64.47h-2.7L5.045,59.852z"/>
				<path d="M22.431,59.274h-8.575v-1.817h8.575V59.274z M22.431,62.908h-8.575v-1.817h8.575V62.908z"/>
				<path d="M29.001,54.333h-2.411v-1.986h2.411V54.333z M26.591,55.691h2.411v8.778h-2.411V55.691z"/>
				<path d="M30.563,55.691h2.292v1.223h0.051c0.611-0.985,1.664-1.46,2.683-1.46c2.564,0,3.209,1.443,3.209,3.616v5.399h-2.411
					v-4.958c0-1.443-0.424-2.156-1.545-2.156c-1.307,0-1.868,0.729-1.868,2.513v4.602h-2.411V55.691z"/>
				<path d="M46.557,63.35h-0.034c-0.561,0.95-1.545,1.358-2.666,1.358c-2.648,0-3.939-2.275-3.939-4.704
					c0-2.359,1.307-4.55,3.888-4.55c1.036,0,2.055,0.44,2.615,1.307h-0.017h0.034v-4.415h2.411V64.47h-2.292V63.35z M44.452,57.271
					c-1.579,0-2.123,1.358-2.123,2.802c0,1.375,0.628,2.818,2.123,2.818c1.596,0,2.072-1.392,2.072-2.836
					C46.523,58.629,46.014,57.271,44.452,57.271z"/>
				<path d="M52.312,60.667c0.068,1.528,0.815,2.225,2.157,2.225c0.967,0,1.749-0.595,1.901-1.138h2.123
					c-0.68,2.071-2.123,2.954-4.109,2.954c-2.768,0-4.482-1.901-4.482-4.618c0-2.632,1.817-4.636,4.482-4.636
					c2.988,0,4.432,2.514,4.262,5.213H52.312L52.312,60.667z M56.235,59.139c-0.221-1.223-0.747-1.868-1.919-1.868
					c-1.528,0-1.97,1.188-2.003,1.868H56.235z"/>
				<path d="M59.732,55.691h2.292v1.121h0.034c0.577-0.934,1.528-1.358,2.615-1.358c2.75,0,3.99,2.225,3.99,4.72
					c0,2.344-1.291,4.534-3.854,4.534c-1.053,0-2.055-0.459-2.632-1.325h-0.034v4.177h-2.411L59.732,55.691L59.732,55.691z
					 M66.252,60.106c0-1.393-0.56-2.836-2.105-2.836c-1.579,0-2.088,1.409-2.088,2.836c0,1.426,0.543,2.784,2.105,2.784
					C65.743,62.891,66.252,61.532,66.252,60.106z"/>
				<path d="M71.752,60.667c0.068,1.528,0.815,2.225,2.157,2.225c0.968,0,1.749-0.595,1.901-1.138h2.123
					c-0.68,2.071-2.123,2.954-4.109,2.954c-2.768,0-4.482-1.901-4.482-4.618c0-2.632,1.816-4.636,4.482-4.636
					c2.988,0,4.432,2.514,4.262,5.213H71.752L71.752,60.667z M75.675,59.139c-0.221-1.223-0.747-1.868-1.919-1.868
					c-1.528,0-1.969,1.188-2.003,1.868H75.675z"/>
				<path d="M79.172,55.691h2.292v1.223h0.051c0.611-0.985,1.664-1.46,2.683-1.46c2.564,0,3.209,1.443,3.209,3.616v5.399h-2.411
					v-4.958c0-1.443-0.425-2.156-1.545-2.156c-1.308,0-1.868,0.729-1.868,2.513v4.602h-2.411V55.691z"/>
				<path d="M95.166,63.35h-0.034c-0.56,0.95-1.545,1.358-2.666,1.358c-2.648,0-3.938-2.275-3.938-4.704
					c0-2.359,1.308-4.55,3.888-4.55c1.036,0,2.054,0.44,2.615,1.307h-0.017h0.034v-4.415h2.41V64.47h-2.292L95.166,63.35
					L95.166,63.35z M93.061,57.271c-1.58,0-2.123,1.358-2.123,2.802c0,1.375,0.628,2.818,2.123,2.818
					c1.596,0,2.071-1.392,2.071-2.836C95.132,58.629,94.623,57.271,93.061,57.271z"/>
				<path d="M100.921,60.667c0.068,1.528,0.815,2.225,2.157,2.225c0.968,0,1.749-0.595,1.901-1.138h2.123
					c-0.68,2.071-2.123,2.954-4.109,2.954c-2.768,0-4.482-1.901-4.482-4.618c0-2.632,1.817-4.636,4.482-4.636
					c2.989,0,4.431,2.514,4.262,5.213H100.921L100.921,60.667L100.921,60.667z M104.844,59.139
					c-0.221-1.223-0.747-1.868-1.919-1.868c-1.528,0-1.97,1.188-2.004,1.868H104.844z"/>
				<path d="M108.341,55.691h2.292v1.223h0.051c0.612-0.985,1.664-1.46,2.683-1.46c2.564,0,3.209,1.443,3.209,3.616v5.399h-2.411
					v-4.958c0-1.443-0.424-2.156-1.545-2.156c-1.307,0-1.868,0.729-1.868,2.513v4.602h-2.411V55.691z"/>
				<path d="M121.125,55.691h1.766v1.613h-1.766v4.348c0,0.814,0.204,1.019,1.019,1.019c0.255,0,0.493-0.017,0.747-0.068v1.885
					c-0.407,0.067-0.933,0.085-1.408,0.085c-1.478,0-2.768-0.34-2.768-2.089v-5.179h-1.46v-1.613h1.46V53.06h2.41V55.691
					L121.125,55.691z"/>
				<path d="M123.773,52.347h2.411V64.47h-2.411V52.347z"/>
				<path d="M132.076,65.573c-0.526,1.41-1.358,1.987-3.022,1.987c-0.492,0-0.985-0.035-1.477-0.086v-1.986
					c0.459,0.034,0.934,0.102,1.41,0.085c0.832-0.085,1.104-0.951,0.832-1.646l-3.09-8.235h2.581l1.987,6.011h0.034l1.918-6.011
					h2.496L132.076,65.573z"/>
				<path d="M144.861,55.454c2.768,0,4.551,1.833,4.551,4.635c0,2.784-1.783,4.618-4.551,4.618c-2.751,0-4.534-1.834-4.534-4.618
					C140.328,57.287,142.11,55.454,144.861,55.454z M144.861,62.891c1.646,0,2.139-1.409,2.139-2.802
					c0-1.409-0.492-2.818-2.139-2.818c-1.63,0-2.123,1.409-2.123,2.818C142.739,61.481,143.231,62.891,144.861,62.891z"/>
				<path d="M150.294,55.691h2.293v1.63h0.034c0.441-1.104,1.629-1.867,2.801-1.867c0.17,0,0.374,0.033,0.526,0.085v2.241
					c-0.221-0.051-0.577-0.085-0.866-0.085c-1.767,0-2.377,1.273-2.377,2.818v3.957h-2.411V55.691L150.294,55.691z"/>
				<path d="M164.998,63.909c0,1.443-0.51,3.888-4.551,3.888c-1.732,0-3.752-0.814-3.871-2.818h2.394
					c0.221,0.9,0.951,1.206,1.8,1.206c1.342,0,1.953-0.917,1.936-2.174v-1.154h-0.034c-0.526,0.917-1.579,1.358-2.631,1.358
					c-2.632,0-3.753-2.004-3.753-4.415c0-2.275,1.308-4.347,3.77-4.347c1.154,0,2.038,0.391,2.615,1.409h0.034V55.69h2.293
					L164.998,63.909L164.998,63.909z M162.705,59.971c0-1.427-0.492-2.7-2.055-2.7c-1.358,0-1.953,1.188-1.953,2.496
					c0,1.256,0.476,2.632,1.953,2.632C162.026,62.398,162.705,61.227,162.705,59.971z"/>
				<path d="M166.151,58.391c0.136-2.258,2.156-2.937,4.126-2.937c1.749,0,3.854,0.391,3.854,2.496v4.567
					c0,0.798,0.085,1.596,0.305,1.952h-2.444c-0.086-0.271-0.153-0.561-0.17-0.85c-0.764,0.799-1.885,1.088-2.955,1.088
					c-1.664,0-2.988-0.833-2.988-2.632c0-1.987,1.494-2.463,2.988-2.666c1.478-0.221,2.853-0.17,2.853-1.154
					c0-1.036-0.713-1.188-1.562-1.188c-0.916,0-1.511,0.373-1.596,1.324L166.151,58.391L166.151,58.391z M171.721,60.174
					c-0.407,0.356-1.257,0.374-2.003,0.51c-0.747,0.152-1.426,0.407-1.426,1.29c0,0.9,0.695,1.121,1.478,1.121
					c1.884,0,1.952-1.494,1.952-2.021V60.174L171.721,60.174z"/>
				<path d="M175.659,55.691h2.292v1.223h0.052c0.611-0.985,1.663-1.46,2.682-1.46c2.564,0,3.209,1.443,3.209,3.616v5.399h-2.41
					v-4.958c0-1.443-0.425-2.156-1.546-2.156c-1.307,0-1.868,0.729-1.868,2.513v4.602h-2.411V55.691L175.659,55.691z"/>
				<path d="M187.527,54.333h-2.411v-1.986h2.411V54.333z M185.116,55.691h2.411v8.778h-2.411V55.691z"/>
				<path d="M188.546,62.653l4.567-5.145h-4.228v-1.817h7.403v1.817l-4.567,5.145h4.889v1.816h-8.065L188.546,62.653L188.546,62.653
					z"/>
				<path d="M199.548,60.667c0.068,1.528,0.815,2.225,2.156,2.225c0.968,0,1.749-0.595,1.901-1.138h2.122
					c-0.679,2.071-2.122,2.954-4.109,2.954c-2.768,0-4.482-1.901-4.482-4.618c0-2.632,1.817-4.636,4.482-4.636
					c2.988,0,4.432,2.514,4.263,5.213H199.548L199.548,60.667L199.548,60.667z M203.47,59.139c-0.221-1.223-0.747-1.868-1.918-1.868
					c-1.528,0-1.97,1.188-2.004,1.868H203.47z"/>
				<path d="M213.233,63.35h-0.035c-0.56,0.95-1.545,1.358-2.666,1.358c-2.648,0-3.939-2.275-3.939-4.704
					c0-2.359,1.309-4.55,3.889-4.55c1.036,0,2.055,0.44,2.614,1.307h-0.017h0.035v-4.415h2.411V64.47h-2.292L213.233,63.35
					L213.233,63.35z M211.127,57.271c-1.58,0-2.122,1.358-2.122,2.802c0,1.375,0.628,2.818,2.122,2.818
					c1.596,0,2.071-1.392,2.071-2.836C213.199,58.629,212.689,57.271,211.127,57.271z"/>
				<path d="M224.319,54.588h-3.633v-2.241h9.933v2.241h-3.634v9.882h-2.665L224.319,54.588L224.319,54.588z"/>
				<path d="M231.671,52.347h9.068v2.241h-6.401v2.599h5.874v2.071h-5.874v2.971h6.537v2.241h-9.203L231.671,52.347L231.671,52.347z
					"/>
				<path d="M241.994,52.347h5.23c3.14,0,5.501,1.97,5.501,5.993c0,3.515-1.8,6.13-5.501,6.13h-5.23V52.347z M244.66,62.229h2.377
					c1.545,0,3.022-0.951,3.022-3.634c0-2.445-0.849-4.007-3.498-4.007h-1.901V62.229z"/>
				<path d="M260.348,60.667c0.068,1.528,0.815,2.225,2.156,2.225c0.968,0,1.749-0.595,1.901-1.138h2.122
					c-0.679,2.071-2.122,2.954-4.109,2.954c-2.768,0-4.482-1.901-4.482-4.618c0-2.632,1.817-4.636,4.482-4.636
					c2.988,0,4.431,2.514,4.263,5.213H260.348L260.348,60.667L260.348,60.667z M264.27,59.139c-0.221-1.223-0.747-1.868-1.918-1.868
					c-1.528,0-1.97,1.188-2.003,1.868H264.27z"/>
				<path d="M272.284,64.47h-2.683l-3.005-8.778h2.53l1.851,5.994h0.034l1.852-5.994h2.394L272.284,64.47z"/>
				<path d="M277.563,60.667c0.068,1.528,0.816,2.225,2.156,2.225c0.968,0,1.749-0.595,1.902-1.138h2.122
					c-0.679,2.071-2.122,2.954-4.109,2.954c-2.768,0-4.482-1.901-4.482-4.618c0-2.632,1.816-4.636,4.482-4.636
					c2.989,0,4.432,2.514,4.262,5.213H277.563L277.563,60.667L277.563,60.667z M281.485,59.139c-0.22-1.223-0.747-1.868-1.918-1.868
					c-1.528,0-1.969,1.188-2.003,1.868H281.485z"/>
				<path d="M284.983,55.691h2.292v1.223h0.051c0.612-0.985,1.664-1.46,2.683-1.46c2.564,0,3.209,1.443,3.209,3.616v5.399h-2.411
					v-4.958c0-1.443-0.424-2.156-1.545-2.156c-1.308,0-1.867,0.729-1.867,2.513v4.602h-2.411L284.983,55.691L284.983,55.691z"/>
				<path d="M297.768,55.691h1.767v1.613h-1.767v4.348c0,0.814,0.204,1.019,1.02,1.019c0.255,0,0.493-0.017,0.747-0.068v1.885
					c-0.407,0.067-0.934,0.085-1.409,0.085c-1.477,0-2.768-0.34-2.768-2.089v-5.179h-1.46v-1.613h1.46V53.06h2.41V55.691z"/>
			</g>
		</g>
		<g>
			<g>
				<path fill="#FF2B06" d="M12.312,12.237H1V1.892h35.05v10.346H24.741v30.021H12.312V12.237L12.312,12.237z"/>
				<path fill="#FF2B06" d="M37.981,1.892h34.025v10.346H50.418v5.03h21.588v9.614H50.418v5.031h21.594v10.346H37.981V1.892z"/>
				<path fill="#FF2B06" d="M74.1,1.892h20.409c13.453,0,18.207,9.95,18.207,20.124c0,12.385-6.557,20.242-20.636,20.242h-17.98
					L74.1,1.892L74.1,1.892z M86.536,31.912h4.864c7.748,0,8.88-6.277,8.88-10.069c0-2.539-0.796-9.605-9.786-9.605h-3.958V31.912z"
					/>
			</g>
			<g>
				<g>
					<path fill="#FF2B06" d="M130.587,26.702l-3.794-6.291l-3.7,6.291h-9.112l8.651-12.721l-8.33-12.167h9.115l3.376,6.015
						l3.472-6.015h9.113l-8.327,12.167l8.651,12.721H130.587z"/>
				</g>
			</g>
		</g>
		<g enable-background="new    ">
			<path d="M147.435,1.298h6.415l20.046,32.479V1.298h5.199v40.197h-6.118L152.634,9.056v32.439h-5.199V1.298z"/>
			<path d="M216.336,4.226c2.776,2.682,4.318,5.729,4.625,9.14h-5.309c-0.591-2.591-1.769-4.643-3.533-6.157
				c-1.765-1.514-4.242-2.271-7.431-2.271c-3.888,0-7.027,1.392-9.419,4.176c-2.392,2.784-3.587,7.052-3.587,12.804
				c0,4.71,1.08,8.53,3.239,11.461c2.159,2.931,5.38,4.396,9.663,4.396c3.942,0,6.944-1.541,9.005-4.625
				c1.093-1.623,1.908-3.757,2.446-6.402h5.309c-0.469,4.232-2.02,7.78-4.652,10.645c-3.156,3.447-7.412,5.172-12.768,5.172
				c-4.616,0-8.494-1.415-11.631-4.244c-4.129-3.742-6.194-9.52-6.194-17.333c0-5.933,1.55-10.797,4.652-14.595
				c3.354-4.125,7.979-6.188,13.875-6.188C209.656,0.203,213.56,1.544,216.336,4.226z"/>
			<path d="M228.514,1.298h5.5v16.609h20.66V1.298h5.5v40.197h-5.5V22.696h-20.66v18.799h-5.5V1.298z"/>
			<path d="M274.731,1.298v24.846c0,2.919,0.552,5.346,1.655,7.279c1.637,2.919,4.395,4.378,8.275,4.378
				c4.651,0,7.814-1.578,9.488-4.733c0.901-1.715,1.352-4.023,1.352-6.924V1.298h5.5v22.575c0,4.943-0.668,8.747-2.004,11.41
				c-2.454,4.853-7.084,7.279-13.894,7.279s-11.432-2.427-13.866-7.279c-1.337-2.663-2.004-6.467-2.004-11.41V1.298H274.731z"/>
		</g>
	</g>
</g>
<g id="grid" display="none">
</g>
</svg>
